<mxfile host="app.diagrams.net" agent="Mozilla/5.0 (Windows NT 10.0; Win64; x64) AppleWebKit/537.36 (KHTML, like Gecko) Chrome/133.0.0.0 Safari/537.36" version="26.0.16" pages="2">
  <diagram name="Server" id="EaxgUiLE4IJ5SzCXhO8B">
    <mxGraphModel grid="1" page="1" gridSize="10" guides="1" tooltips="1" connect="1" arrows="1" fold="1" pageScale="1" pageWidth="827" pageHeight="1169" math="0" shadow="0">
      <root>
        <mxCell id="0" />
        <mxCell id="1" parent="0" />
        <mxCell id="OdSbroLDjK8SDo7c2gSr-1" value="&lt;p style=&quot;margin: 0px ; margin-top: 4px ; text-align: center&quot;&gt;&lt;i&gt;&amp;lt;&amp;lt;abstract&amp;gt;&amp;gt;&lt;/i&gt;&lt;br&gt;&lt;b&gt;Utente&lt;/b&gt;&lt;/p&gt;&lt;hr size=&quot;1&quot; style=&quot;border-style: solid&quot;&gt;&lt;p style=&quot;margin: 0px ; margin-left: 4px&quot;&gt;- id:String&amp;nbsp;&lt;/p&gt;&lt;p style=&quot;margin: 0px ; margin-left: 4px&quot;&gt;- password:String&amp;nbsp;&lt;/p&gt;&lt;p style=&quot;margin: 0px ; margin-left: 4px&quot;&gt;- nome:String&amp;nbsp;&lt;/p&gt;&lt;p style=&quot;margin: 0px ; margin-left: 4px&quot;&gt;- cognome:String&amp;nbsp;&lt;/p&gt;&lt;p style=&quot;margin: 0px ; margin-left: 4px&quot;&gt;- luogoNascita:String&amp;nbsp;&lt;/p&gt;&lt;p style=&quot;margin: 0px ; margin-left: 4px&quot;&gt;- dataNascita : Date&lt;/p&gt;&lt;p style=&quot;margin: 0px ; margin-left: 4px&quot;&gt;- sesso:char&lt;/p&gt;&lt;p style=&quot;margin: 0px ; margin-left: 4px&quot;&gt;- cellulare:String&amp;nbsp;&lt;/p&gt;&lt;p style=&quot;margin: 0px ; margin-left: 4px&quot;&gt;- indirizzo:String&amp;nbsp;&lt;/p&gt;&lt;hr size=&quot;1&quot; style=&quot;border-style: solid&quot;&gt;&lt;p style=&quot;margin: 0px ; margin-left: 4px&quot;&gt;+ getId():String&lt;br&gt;+ setId(String)&lt;/p&gt;&lt;p style=&quot;margin: 0px ; margin-left: 4px&quot;&gt;+ getNome():String&lt;br&gt;+ setNome(String)&lt;br&gt;&lt;/p&gt;&lt;p style=&quot;margin: 0px ; margin-left: 4px&quot;&gt;+ getCognome():String&lt;br&gt;+ setCognome(String)&lt;br&gt;&lt;/p&gt;&lt;p style=&quot;margin: 0px 0px 0px 4px&quot;&gt;+ getLuogoNascita():String&lt;br&gt;+ setLuogoNascita(String)&lt;/p&gt;&lt;p style=&quot;margin: 0px 0px 0px 4px&quot;&gt;+ getDataNascita():LocalDate&lt;br&gt;+ setDataNascita(LocalDate)&lt;br&gt;&lt;/p&gt;&lt;p style=&quot;margin: 0px 0px 0px 4px&quot;&gt;+ getSesso():String&lt;br&gt;+ setSesso(String)&lt;/p&gt;&lt;p style=&quot;margin: 0px 0px 0px 4px&quot;&gt;+ getCellulare():String&lt;br&gt;+ setCellulare(String)&lt;/p&gt;&lt;p style=&quot;margin: 0px 0px 0px 4px&quot;&gt;+ getIndirizzo():String&lt;br&gt;+ setIndirizzo(String)&lt;br&gt;&lt;/p&gt;&lt;p style=&quot;margin: 0px 0px 0px 4px&quot;&gt;+ getUserPassword():String&lt;br&gt;+ setUserPassword(String)&lt;/p&gt;&lt;p style=&quot;margin: 0px 0px 0px 4px&quot;&gt;+ toString():String&lt;/p&gt;" style="verticalAlign=top;align=left;overflow=fill;html=1;whiteSpace=wrap;" vertex="1" parent="1">
          <mxGeometry x="80" y="-260" width="190" height="470" as="geometry" />
        </mxCell>
        <mxCell id="OdSbroLDjK8SDo7c2gSr-4" value="&lt;p style=&quot;margin: 0px ; margin-top: 4px ; text-align: center&quot;&gt;&lt;i&gt;&amp;lt;&amp;lt;abstract class&amp;gt;&amp;gt;&lt;/i&gt;&lt;br&gt;&lt;b&gt;TitoloViaggio&lt;/b&gt;&lt;/p&gt;&lt;hr size=&quot;1&quot; style=&quot;border-style: solid&quot;&gt;&lt;p style=&quot;margin: 0px ; margin-left: 4px&quot;&gt;- idTitolo : String&lt;/p&gt;&lt;div&gt;- prezzo: double&lt;/div&gt;&lt;div&gt;-emissione: datastamp&lt;/div&gt;&lt;div&gt;- idPagamento: String&lt;/div&gt;&lt;hr size=&quot;1&quot; style=&quot;border-style: solid&quot;&gt;&lt;p style=&quot;margin: 0px 0px 0px 4px&quot;&gt;+ getId():String&lt;br&gt;+ setId(String)&lt;/p&gt;&lt;p style=&quot;margin: 0px 0px 0px 4px&quot;&gt;+ getIdPagamento():String&lt;br&gt;+ setIdPagamento(String)&lt;br&gt;&lt;/p&gt;&lt;div&gt;&lt;p style=&quot;margin: 0px 0px 0px 4px&quot;&gt;+ getEmissione():LocalDate&lt;/p&gt;&lt;/div&gt;&lt;div&gt;&lt;p style=&quot;margin: 0px 0px 0px 4px&quot;&gt;+ setEmissione(LocalDate)&lt;/p&gt;&lt;/div&gt;&lt;p style=&quot;margin: 0px 0px 0px 4px&quot;&gt;+ getPrezzo():double&lt;br&gt;+ setPrezzo(double)&lt;/p&gt;" style="verticalAlign=top;align=left;overflow=fill;html=1;whiteSpace=wrap;" vertex="1" parent="1">
          <mxGeometry x="1010" y="-150" width="190" height="240" as="geometry" />
        </mxCell>
        <mxCell id="kzNBbhYGzJcGT8_5YspX-5" value="&lt;p style=&quot;margin: 0px ; margin-top: 4px ; text-align: center&quot;&gt;&lt;b&gt;Biglietto&lt;/b&gt;&lt;/p&gt;&lt;hr size=&quot;1&quot; style=&quot;border-style: solid&quot;&gt;&lt;p style=&quot;margin: 0px 0px 0px 4px&quot;&gt;&lt;span style=&quot;background-color: transparent&quot;&gt;-validato: boolean&lt;/span&gt;&lt;/p&gt;&lt;p style=&quot;margin: 0px 0px 0px 4px&quot;&gt;-ritorno: boolean&lt;/p&gt;&lt;hr size=&quot;1&quot; style=&quot;border-style: solid&quot;&gt;&lt;p style=&quot;margin: 0px 0px 0px 4px&quot;&gt;+ isValidato():boolean&lt;/p&gt;&lt;p style=&quot;margin: 0px 0px 0px 4px&quot;&gt;+ setValidato(boolean)&lt;/p&gt;&lt;p style=&quot;margin: 0px 0px 0px 4px&quot;&gt;+ isRitorno():boolean&lt;/p&gt;&lt;p style=&quot;margin: 0px 0px 0px 4px&quot;&gt;+ setRitorno(boolean)&lt;/p&gt;&lt;div&gt;&lt;p style=&quot;margin: 0px 0px 0px 4px&quot;&gt;+ getDataRitorno():LocalDate&lt;/p&gt;&lt;/div&gt;&lt;div&gt;&lt;p style=&quot;margin: 0px 0px 0px 4px&quot;&gt;+ setDataRitorno(LocalDate)&lt;/p&gt;&lt;div&gt;&lt;p style=&quot;margin: 0px 0px 0px 4px&quot;&gt;+ getDataValidazione():LocalDate&lt;/p&gt;&lt;/div&gt;&lt;div&gt;&lt;p style=&quot;margin: 0px 0px 0px 4px&quot;&gt;+ setDataValidazione(LocalDate)&lt;/p&gt;&lt;/div&gt;&lt;/div&gt;" style="verticalAlign=top;align=left;overflow=fill;html=1;whiteSpace=wrap;" vertex="1" parent="1">
          <mxGeometry x="1200" y="220" width="190" height="200" as="geometry" />
        </mxCell>
        <mxCell id="kzNBbhYGzJcGT8_5YspX-6" value="&lt;p style=&quot;margin: 0px ; margin-top: 4px ; text-align: center&quot;&gt;&lt;b&gt;Abbonamento&lt;/b&gt;&lt;/p&gt;&lt;hr size=&quot;1&quot; style=&quot;border-style: solid&quot;&gt;&lt;p style=&quot;margin: 0px ; margin-left: 4px&quot;&gt;&lt;span style=&quot;background-color: transparent&quot;&gt;-tipo: String&lt;/span&gt;&lt;/p&gt;&lt;p style=&quot;margin: 0px ; margin-left: 4px&quot;&gt;-scadenza: datastamp&lt;/p&gt;&lt;p style=&quot;margin: 0px ; margin-left: 4px&quot;&gt;-idTessera: String&lt;br&gt;&lt;/p&gt;&lt;hr size=&quot;1&quot; style=&quot;border-style: solid&quot;&gt;&lt;p style=&quot;margin: 0px 0px 0px 4px&quot;&gt;+ getTipoAbbonamento():String&lt;br&gt;+ setTipoAbbonamento(String)&lt;/p&gt;&lt;p style=&quot;margin: 0px 0px 0px 4px&quot;&gt;+ getIdTessera():String&lt;br&gt;+ setIdPagamento(String)&lt;br&gt;&lt;/p&gt;&lt;div&gt;&lt;p style=&quot;margin: 0px 0px 0px 4px&quot;&gt;+ getScadenza():LocalDate&lt;/p&gt;&lt;/div&gt;&lt;div&gt;&lt;p style=&quot;margin: 0px 0px 0px 4px&quot;&gt;+ setEmissione(LocalDate)&lt;/p&gt;&lt;/div&gt;" style="verticalAlign=top;align=left;overflow=fill;html=1;whiteSpace=wrap;" vertex="1" parent="1">
          <mxGeometry x="900" y="230" width="180" height="180" as="geometry" />
        </mxCell>
        <mxCell id="o32jfac_dHfsaz-FWdoC-1" value="&lt;p style=&quot;margin: 0px ; margin-top: 4px ; text-align: center&quot;&gt;&lt;b&gt;Dipendente&lt;/b&gt;&lt;/p&gt;&lt;hr size=&quot;1&quot; style=&quot;border-style: solid&quot;&gt;&lt;p style=&quot;margin: 0px ; margin-left: 4px&quot;&gt;- idDipendente:String&amp;nbsp;&lt;/p&gt;&lt;p style=&quot;margin: 0px ; margin-left: 4px&quot;&gt;- codTreno:String&amp;nbsp;&lt;/p&gt;&lt;p style=&quot;margin: 0px ; margin-left: 4px&quot;&gt;- stipendio:double&lt;/p&gt;&lt;p style=&quot;margin: 0px ; margin-left: 4px&quot;&gt;- ruolo:String&amp;nbsp;&lt;/p&gt;&lt;hr size=&quot;1&quot; style=&quot;border-style: solid&quot;&gt;&lt;p style=&quot;margin: 0px ; margin-left: 4px&quot;&gt;+ getCodTreno():String&lt;/p&gt;&lt;p style=&quot;margin: 0px 0px 0px 4px&quot;&gt;+ setCodTreno(String)&lt;/p&gt;&lt;p style=&quot;margin: 0px 0px 0px 4px&quot;&gt;+ getStipendio():double&lt;/p&gt;&lt;p style=&quot;margin: 0px 0px 0px 4px&quot;&gt;+ setStipendio(double)&lt;/p&gt;&lt;div&gt;&lt;p style=&quot;margin: 0px 0px 0px 4px&quot;&gt;+ getRuolo():String&lt;/p&gt;&lt;/div&gt;&lt;div&gt;&lt;p style=&quot;margin: 0px 0px 0px 4px&quot;&gt;+ setRuolo(String)&lt;/p&gt;&lt;/div&gt;" style="verticalAlign=top;align=left;overflow=fill;html=1;whiteSpace=wrap;" vertex="1" parent="1">
          <mxGeometry x="-80" y="250" width="160" height="190" as="geometry" />
        </mxCell>
        <mxCell id="o32jfac_dHfsaz-FWdoC-2" value="&lt;p style=&quot;margin: 0px ; margin-top: 4px ; text-align: center&quot;&gt;&lt;b&gt;Cliente&lt;/b&gt;&lt;/p&gt;&lt;hr size=&quot;1&quot; style=&quot;border-style: solid&quot;&gt;&lt;p style=&quot;margin: 0px 0px 0px 4px&quot;&gt;- idCliente:String&amp;nbsp;&lt;/p&gt;&lt;p style=&quot;margin: 0px 0px 0px 4px&quot;&gt;- bliancio: double&lt;/p&gt;&lt;p style=&quot;margin: 0px 0px 0px 4px&quot;&gt;- email:String&lt;/p&gt;&lt;hr size=&quot;1&quot; style=&quot;border-style: solid&quot;&gt;&lt;p style=&quot;margin: 0px 0px 0px 4px&quot;&gt;+ getBilancio():double&lt;/p&gt;&lt;p style=&quot;margin: 0px 0px 0px 4px&quot;&gt;+ setBilancio(double)&lt;/p&gt;&lt;div&gt;&lt;p style=&quot;margin: 0px 0px 0px 4px&quot;&gt;+ getEmail():String&lt;/p&gt;&lt;/div&gt;&lt;div&gt;&lt;p style=&quot;margin: 0px 0px 0px 4px&quot;&gt;+ setEmail(String)&lt;/p&gt;&lt;/div&gt;" style="verticalAlign=top;align=left;overflow=fill;html=1;whiteSpace=wrap;" vertex="1" parent="1">
          <mxGeometry x="270" y="260" width="160" height="160" as="geometry" />
        </mxCell>
        <mxCell id="o32jfac_dHfsaz-FWdoC-3" value="&lt;p style=&quot;margin: 0px ; margin-top: 4px ; text-align: center&quot;&gt;&lt;b&gt;Tessera&lt;/b&gt;&lt;/p&gt;&lt;hr size=&quot;1&quot; style=&quot;border-style: solid&quot;&gt;&lt;p style=&quot;margin: 0px 0px 0px 4px&quot;&gt;- idTessera:String&amp;nbsp;&lt;/p&gt;&lt;p style=&quot;margin: 0px 0px 0px 4px&quot;&gt;- emissione: datastamp&lt;/p&gt;&lt;p style=&quot;margin: 0px 0px 0px 4px&quot;&gt;- scadenza: datastamp&lt;/p&gt;&lt;p style=&quot;margin: 0px 0px 0px 4px&quot;&gt;&lt;span style=&quot;background-color: transparent&quot;&gt;- idCliente: String&lt;/span&gt;&lt;/p&gt;&lt;hr size=&quot;1&quot; style=&quot;border-style: solid&quot;&gt;&lt;p style=&quot;margin: 0px 0px 0px 4px&quot;&gt;+ getIdTessera():String&lt;/p&gt;&lt;p style=&quot;margin: 0px 0px 0px 4px&quot;&gt;+ setIdTessera(String)&lt;/p&gt;&lt;p style=&quot;margin: 0px 0px 0px 4px&quot;&gt;+ getEmissione():LocalDate&lt;/p&gt;&lt;p style=&quot;margin: 0px 0px 0px 4px&quot;&gt;+ setEmissione(LocalDate)&lt;/p&gt;&lt;div&gt;&lt;p style=&quot;margin: 0px 0px 0px 4px&quot;&gt;+ getScadenza():LocalDate&lt;/p&gt;&lt;/div&gt;&lt;div&gt;&lt;p style=&quot;margin: 0px 0px 0px 4px&quot;&gt;+ setScadenza(LocalDate)&lt;/p&gt;&lt;div&gt;&lt;p style=&quot;margin: 0px 0px 0px 4px&quot;&gt;+ getIdCliente():String&lt;/p&gt;&lt;/div&gt;&lt;div&gt;&lt;p style=&quot;margin: 0px 0px 0px 4px&quot;&gt;+ setIdCliente(String)&lt;/p&gt;&lt;/div&gt;&lt;/div&gt;" style="verticalAlign=top;align=left;overflow=fill;html=1;whiteSpace=wrap;" vertex="1" parent="1">
          <mxGeometry x="590" y="220" width="160" height="220" as="geometry" />
        </mxCell>
        <mxCell id="QnNf_ze-4JacGsoy-oLV-1" value="Viaggio" style="swimlane;fontStyle=1;align=center;verticalAlign=top;childLayout=stackLayout;horizontal=1;startSize=26;horizontalStack=0;resizeParent=1;resizeParentMax=0;resizeLast=0;collapsible=1;marginBottom=0;whiteSpace=wrap;html=1;" vertex="1" parent="1">
          <mxGeometry x="1230" y="770" width="190" height="400" as="geometry" />
        </mxCell>
        <mxCell id="QnNf_ze-4JacGsoy-oLV-2" value="- IDViaggio :String&lt;div&gt;- IDTratta : String&lt;/div&gt;&lt;div&gt;- IDPartenza: String&lt;/div&gt;&lt;div&gt;- IDArrivo : String&lt;/div&gt;&lt;div&gt;- DataViaggio : date&lt;/div&gt;&lt;div&gt;- OraPartenza : time&lt;/div&gt;&lt;div&gt;- OraArrivo : time&lt;/div&gt;" style="text;strokeColor=none;fillColor=none;align=left;verticalAlign=top;spacingLeft=4;spacingRight=4;overflow=hidden;rotatable=0;points=[[0,0.5],[1,0.5]];portConstraint=eastwest;whiteSpace=wrap;html=1;" vertex="1" parent="QnNf_ze-4JacGsoy-oLV-1">
          <mxGeometry y="26" width="190" height="114" as="geometry" />
        </mxCell>
        <mxCell id="QnNf_ze-4JacGsoy-oLV-3" value="" style="line;strokeWidth=1;fillColor=none;align=left;verticalAlign=middle;spacingTop=-1;spacingLeft=3;spacingRight=3;rotatable=0;labelPosition=right;points=[];portConstraint=eastwest;strokeColor=inherit;" vertex="1" parent="QnNf_ze-4JacGsoy-oLV-1">
          <mxGeometry y="140" width="190" height="8" as="geometry" />
        </mxCell>
        <mxCell id="QnNf_ze-4JacGsoy-oLV-4" value="&lt;p style=&quot;margin: 0px 0px 0px 4px&quot;&gt;+ getIdViaggio():String&lt;/p&gt;&lt;p style=&quot;margin: 0px 0px 0px 4px&quot;&gt;+ setIdViaggio(String)&lt;/p&gt;&lt;p style=&quot;margin: 0px 0px 0px 4px&quot;&gt;+ getiDTratta():String&lt;/p&gt;&lt;p style=&quot;margin: 0px 0px 0px 4px&quot;&gt;+ setIDTratta(String)&lt;/p&gt;&lt;div&gt;&lt;p style=&quot;margin: 0px 0px 0px 4px&quot;&gt;+ getIDPartenza():String&lt;/p&gt;&lt;/div&gt;&lt;div&gt;&lt;p style=&quot;margin: 0px 0px 0px 4px&quot;&gt;+ setIDPartenza(String)&lt;/p&gt;&lt;div&gt;&lt;p style=&quot;margin: 0px 0px 0px 4px&quot;&gt;+ getIDArrivo():String&lt;/p&gt;&lt;/div&gt;&lt;div&gt;&lt;p style=&quot;margin: 0px 0px 0px 4px&quot;&gt;+ setIDArrivo(String)&lt;/p&gt;&lt;p style=&quot;margin: 0px 0px 0px 4px&quot;&gt;+ getDataViaggio():LocalDate&lt;/p&gt;&lt;p style=&quot;margin: 0px 0px 0px 4px&quot;&gt;+ setDataViaggio(LocalDate)&lt;/p&gt;&lt;p style=&quot;margin: 0px 0px 0px 4px&quot;&gt;+ setOraPartenza(LocalTime)&lt;/p&gt;&lt;div&gt;&lt;p style=&quot;margin: 0px 0px 0px 4px&quot;&gt;+ getOraPartenza():LocalTime&lt;/p&gt;&lt;/div&gt;&lt;div&gt;&lt;p style=&quot;margin: 0px 0px 0px 4px&quot;&gt;+ setOraArrivo(LocalTime)&lt;/p&gt;&lt;div&gt;&lt;p style=&quot;margin: 0px 0px 0px 4px&quot;&gt;+ getOraArrivo():LocalTime&lt;/p&gt;&lt;/div&gt;&lt;p style=&quot;margin: 0px 0px 0px 4px&quot;&gt;+ setIdBiglietto(String)&lt;/p&gt;&lt;p style=&quot;margin: 0px 0px 0px 4px&quot;&gt;+ setIdBiglietto(String)&lt;br&gt;&lt;/p&gt;&lt;/div&gt;&lt;/div&gt;&lt;/div&gt;" style="text;strokeColor=none;fillColor=none;align=left;verticalAlign=top;spacingLeft=4;spacingRight=4;overflow=hidden;rotatable=0;points=[[0,0.5],[1,0.5]];portConstraint=eastwest;whiteSpace=wrap;html=1;" vertex="1" parent="QnNf_ze-4JacGsoy-oLV-1">
          <mxGeometry y="148" width="190" height="252" as="geometry" />
        </mxCell>
        <mxCell id="QnNf_ze-4JacGsoy-oLV-5" value="Pagamento" style="swimlane;fontStyle=1;align=center;verticalAlign=top;childLayout=stackLayout;horizontal=1;startSize=26;horizontalStack=0;resizeParent=1;resizeParentMax=0;resizeLast=0;collapsible=1;marginBottom=0;whiteSpace=wrap;html=1;" vertex="1" parent="1">
          <mxGeometry x="620" y="-170" width="200" height="290" as="geometry" />
        </mxCell>
        <mxCell id="QnNf_ze-4JacGsoy-oLV-6" value="- idPagamento : String&lt;div&gt;- totale : double&lt;/div&gt;&lt;div&gt;- idCliente : String&lt;/div&gt;&lt;div&gt;- idTitolo : String&lt;/div&gt;&lt;div&gt;- tipo : String&lt;/div&gt;&lt;div&gt;- dataOra : timestamp&lt;/div&gt;" style="text;strokeColor=none;fillColor=none;align=left;verticalAlign=top;spacingLeft=4;spacingRight=4;overflow=hidden;rotatable=0;points=[[0,0.5],[1,0.5]];portConstraint=eastwest;whiteSpace=wrap;html=1;" vertex="1" parent="QnNf_ze-4JacGsoy-oLV-5">
          <mxGeometry y="26" width="200" height="104" as="geometry" />
        </mxCell>
        <mxCell id="QnNf_ze-4JacGsoy-oLV-7" value="" style="line;strokeWidth=1;fillColor=none;align=left;verticalAlign=middle;spacingTop=-1;spacingLeft=3;spacingRight=3;rotatable=0;labelPosition=right;points=[];portConstraint=eastwest;strokeColor=inherit;" vertex="1" parent="QnNf_ze-4JacGsoy-oLV-5">
          <mxGeometry y="130" width="200" height="8" as="geometry" />
        </mxCell>
        <mxCell id="QnNf_ze-4JacGsoy-oLV-8" value="&lt;p style=&quot;margin: 0px 0px 0px 4px&quot;&gt;+ getIdPagamento():String&lt;/p&gt;&lt;p style=&quot;margin: 0px 0px 0px 4px&quot;&gt;+ setIdPagamento(String)&lt;/p&gt;&lt;p style=&quot;margin: 0px 0px 0px 4px&quot;&gt;+ getIdCliente():String&lt;/p&gt;&lt;p style=&quot;margin: 0px 0px 0px 4px&quot;&gt;+ setIdCliente(String)&lt;/p&gt;&lt;div&gt;&lt;p style=&quot;margin: 0px 0px 0px 4px&quot;&gt;+ getDataPagamento():LocalDate&lt;/p&gt;&lt;/div&gt;&lt;div&gt;&lt;p style=&quot;margin: 0px 0px 0px 4px&quot;&gt;+ setDataPagamento(LocalDate)&lt;/p&gt;&lt;div&gt;&lt;p style=&quot;margin: 0px 0px 0px 4px&quot;&gt;+ getTotale():double&lt;/p&gt;&lt;/div&gt;&lt;div&gt;&lt;p style=&quot;margin: 0px 0px 0px 4px&quot;&gt;+ setTotale(double)&lt;/p&gt;&lt;p style=&quot;margin: 0px 0px 0px 4px&quot;&gt;+ getTipo():String&lt;/p&gt;&lt;p style=&quot;margin: 0px 0px 0px 4px&quot;&gt;+ setTipo(String)&lt;/p&gt;&lt;/div&gt;&lt;/div&gt;" style="text;strokeColor=none;fillColor=none;align=left;verticalAlign=top;spacingLeft=4;spacingRight=4;overflow=hidden;rotatable=0;points=[[0,0.5],[1,0.5]];portConstraint=eastwest;whiteSpace=wrap;html=1;" vertex="1" parent="QnNf_ze-4JacGsoy-oLV-5">
          <mxGeometry y="138" width="200" height="152" as="geometry" />
        </mxCell>
        <mxCell id="QnNf_ze-4JacGsoy-oLV-10" value="Treno" style="swimlane;fontStyle=1;align=center;verticalAlign=top;childLayout=stackLayout;horizontal=1;startSize=26;horizontalStack=0;resizeParent=1;resizeParentMax=0;resizeLast=0;collapsible=1;marginBottom=0;whiteSpace=wrap;html=1;" vertex="1" parent="1">
          <mxGeometry x="-80" y="585" width="180" height="240" as="geometry" />
        </mxCell>
        <mxCell id="QnNf_ze-4JacGsoy-oLV-11" value="- idTreno: String&lt;div&gt;- modello: String&lt;/div&gt;&lt;div&gt;- kw: int&lt;/div&gt;&lt;div&gt;- numPosti: int&lt;/div&gt;" style="text;strokeColor=none;fillColor=none;align=left;verticalAlign=top;spacingLeft=4;spacingRight=4;overflow=hidden;rotatable=0;points=[[0,0.5],[1,0.5]];portConstraint=eastwest;whiteSpace=wrap;html=1;" vertex="1" parent="QnNf_ze-4JacGsoy-oLV-10">
          <mxGeometry y="26" width="180" height="64" as="geometry" />
        </mxCell>
        <mxCell id="QnNf_ze-4JacGsoy-oLV-12" value="" style="line;strokeWidth=1;fillColor=none;align=left;verticalAlign=middle;spacingTop=-1;spacingLeft=3;spacingRight=3;rotatable=0;labelPosition=right;points=[];portConstraint=eastwest;strokeColor=inherit;" vertex="1" parent="QnNf_ze-4JacGsoy-oLV-10">
          <mxGeometry y="90" width="180" height="8" as="geometry" />
        </mxCell>
        <mxCell id="QnNf_ze-4JacGsoy-oLV-13" value="&lt;p style=&quot;margin: 0px 0px 0px 4px&quot;&gt;+ getIdTreni():String&lt;/p&gt;&lt;p style=&quot;margin: 0px 0px 0px 4px&quot;&gt;+ setIdTreno(String)&lt;/p&gt;&lt;p style=&quot;margin: 0px 0px 0px 4px&quot;&gt;+ getModello():String&lt;/p&gt;&lt;p style=&quot;margin: 0px 0px 0px 4px&quot;&gt;+ setModello(String)&lt;/p&gt;&lt;div&gt;&lt;p style=&quot;margin: 0px 0px 0px 4px&quot;&gt;+ getKw():int&lt;/p&gt;&lt;/div&gt;&lt;div&gt;&lt;p style=&quot;margin: 0px 0px 0px 4px&quot;&gt;+ setKw(int)&lt;/p&gt;&lt;div&gt;&lt;p style=&quot;margin: 0px 0px 0px 4px&quot;&gt;+ getNumPosti():int&lt;/p&gt;&lt;/div&gt;&lt;div&gt;&lt;p style=&quot;margin: 0px 0px 0px 4px&quot;&gt;+ setNumPosti(int)&lt;/p&gt;&lt;/div&gt;&lt;/div&gt;" style="text;strokeColor=none;fillColor=none;align=left;verticalAlign=top;spacingLeft=4;spacingRight=4;overflow=hidden;rotatable=0;points=[[0,0.5],[1,0.5]];portConstraint=eastwest;whiteSpace=wrap;html=1;" vertex="1" parent="QnNf_ze-4JacGsoy-oLV-10">
          <mxGeometry y="98" width="180" height="142" as="geometry" />
        </mxCell>
        <mxCell id="QnNf_ze-4JacGsoy-oLV-14" value="Tratta" style="swimlane;fontStyle=1;align=center;verticalAlign=top;childLayout=stackLayout;horizontal=1;startSize=26;horizontalStack=0;resizeParent=1;resizeParentMax=0;resizeLast=0;collapsible=1;marginBottom=0;whiteSpace=wrap;html=1;" vertex="1" parent="1">
          <mxGeometry x="240" y="850" width="160" height="190" as="geometry" />
        </mxCell>
        <mxCell id="QnNf_ze-4JacGsoy-oLV-15" value="-idTratta: String&lt;br&gt;-nome: String&lt;br&gt;-lunghezza: int" style="text;strokeColor=none;fillColor=none;align=left;verticalAlign=top;spacingLeft=4;spacingRight=4;overflow=hidden;rotatable=0;points=[[0,0.5],[1,0.5]];portConstraint=eastwest;whiteSpace=wrap;html=1;" vertex="1" parent="QnNf_ze-4JacGsoy-oLV-14">
          <mxGeometry y="26" width="160" height="54" as="geometry" />
        </mxCell>
        <mxCell id="QnNf_ze-4JacGsoy-oLV-16" value="" style="line;strokeWidth=1;fillColor=none;align=left;verticalAlign=middle;spacingTop=-1;spacingLeft=3;spacingRight=3;rotatable=0;labelPosition=right;points=[];portConstraint=eastwest;strokeColor=inherit;" vertex="1" parent="QnNf_ze-4JacGsoy-oLV-14">
          <mxGeometry y="80" width="160" height="8" as="geometry" />
        </mxCell>
        <mxCell id="QnNf_ze-4JacGsoy-oLV-17" value="&lt;p style=&quot;margin: 0px 0px 0px 4px&quot;&gt;+ getIdTratta():String&lt;br&gt;+ setIdTratta(String)&lt;/p&gt;&lt;p style=&quot;margin: 0px 0px 0px 4px&quot;&gt;+ getNome():String&lt;br&gt;+ setNome(String)&lt;br&gt;&lt;/p&gt;&lt;div&gt;&lt;p style=&quot;margin: 0px 0px 0px 4px&quot;&gt;+ getLunghezza():int&lt;/p&gt;&lt;/div&gt;&lt;div&gt;&lt;p style=&quot;margin: 0px 0px 0px 4px&quot;&gt;+ setLunghezza(int)&lt;/p&gt;&lt;/div&gt;" style="text;strokeColor=none;fillColor=none;align=left;verticalAlign=top;spacingLeft=4;spacingRight=4;overflow=hidden;rotatable=0;points=[[0,0.5],[1,0.5]];portConstraint=eastwest;whiteSpace=wrap;html=1;" vertex="1" parent="QnNf_ze-4JacGsoy-oLV-14">
          <mxGeometry y="88" width="160" height="102" as="geometry" />
        </mxCell>
        <mxCell id="QnNf_ze-4JacGsoy-oLV-18" value="Fermata" style="swimlane;fontStyle=1;align=center;verticalAlign=top;childLayout=stackLayout;horizontal=1;startSize=26;horizontalStack=0;resizeParent=1;resizeParentMax=0;resizeLast=0;collapsible=1;marginBottom=0;whiteSpace=wrap;html=1;" vertex="1" parent="1">
          <mxGeometry x="490" y="1550" width="200" height="200" as="geometry" />
        </mxCell>
        <mxCell id="QnNf_ze-4JacGsoy-oLV-19" value="-idFermata: String&lt;br&gt;-citta: String&lt;br&gt;-numBinari: int" style="text;strokeColor=none;fillColor=none;align=left;verticalAlign=top;spacingLeft=4;spacingRight=4;overflow=hidden;rotatable=0;points=[[0,0.5],[1,0.5]];portConstraint=eastwest;whiteSpace=wrap;html=1;" vertex="1" parent="QnNf_ze-4JacGsoy-oLV-18">
          <mxGeometry y="26" width="200" height="54" as="geometry" />
        </mxCell>
        <mxCell id="QnNf_ze-4JacGsoy-oLV-20" value="" style="line;strokeWidth=1;fillColor=none;align=left;verticalAlign=middle;spacingTop=-1;spacingLeft=3;spacingRight=3;rotatable=0;labelPosition=right;points=[];portConstraint=eastwest;strokeColor=inherit;" vertex="1" parent="QnNf_ze-4JacGsoy-oLV-18">
          <mxGeometry y="80" width="200" height="8" as="geometry" />
        </mxCell>
        <mxCell id="QnNf_ze-4JacGsoy-oLV-21" value="&lt;p style=&quot;margin: 0px 0px 0px 4px&quot;&gt;+ getIdFermata():String&lt;br&gt;+ setIdFermata(String)&lt;/p&gt;&lt;p style=&quot;margin: 0px 0px 0px 4px&quot;&gt;+ getCitta():String&lt;br&gt;+ setCitta(String)&lt;br&gt;&lt;/p&gt;&lt;div&gt;&lt;p style=&quot;margin: 0px 0px 0px 4px&quot;&gt;+ getNumBinari():int&lt;/p&gt;&lt;/div&gt;&lt;div&gt;&lt;p style=&quot;margin: 0px 0px 0px 4px&quot;&gt;+ setNumBinari(int)&lt;/p&gt;&lt;/div&gt;" style="text;strokeColor=none;fillColor=none;align=left;verticalAlign=top;spacingLeft=4;spacingRight=4;overflow=hidden;rotatable=0;points=[[0,0.5],[1,0.5]];portConstraint=eastwest;whiteSpace=wrap;html=1;" vertex="1" parent="QnNf_ze-4JacGsoy-oLV-18">
          <mxGeometry y="88" width="200" height="112" as="geometry" />
        </mxCell>
        <mxCell id="QnNf_ze-4JacGsoy-oLV-30" value="Rimborso" style="swimlane;fontStyle=1;align=center;verticalAlign=top;childLayout=stackLayout;horizontal=1;startSize=26;horizontalStack=0;resizeParent=1;resizeParentMax=0;resizeLast=0;collapsible=1;marginBottom=0;whiteSpace=wrap;html=1;" vertex="1" parent="1">
          <mxGeometry x="720" y="460" width="200" height="280" as="geometry" />
        </mxCell>
        <mxCell id="QnNf_ze-4JacGsoy-oLV-31" value="-idRimborso: String&lt;br&gt;-dataOra: datastamp&lt;br&gt;-totale: double&lt;br&gt;-idBiglietto: String&lt;br&gt;-idRichiedente: String" style="text;strokeColor=none;fillColor=none;align=left;verticalAlign=top;spacingLeft=4;spacingRight=4;overflow=hidden;rotatable=0;points=[[0,0.5],[1,0.5]];portConstraint=eastwest;whiteSpace=wrap;html=1;" vertex="1" parent="QnNf_ze-4JacGsoy-oLV-30">
          <mxGeometry y="26" width="200" height="84" as="geometry" />
        </mxCell>
        <mxCell id="QnNf_ze-4JacGsoy-oLV-32" value="" style="line;strokeWidth=1;fillColor=none;align=left;verticalAlign=middle;spacingTop=-1;spacingLeft=3;spacingRight=3;rotatable=0;labelPosition=right;points=[];portConstraint=eastwest;strokeColor=inherit;" vertex="1" parent="QnNf_ze-4JacGsoy-oLV-30">
          <mxGeometry y="110" width="200" height="8" as="geometry" />
        </mxCell>
        <mxCell id="QnNf_ze-4JacGsoy-oLV-33" value="&lt;p style=&quot;margin: 0px 0px 0px 4px&quot;&gt;+ getIdRimborso():String&lt;/p&gt;&lt;p style=&quot;margin: 0px 0px 0px 4px&quot;&gt;+ setIdRimborso(String)&lt;/p&gt;&lt;p style=&quot;margin: 0px 0px 0px 4px&quot;&gt;+ getIdRichiedente():String&lt;/p&gt;&lt;p style=&quot;margin: 0px 0px 0px 4px&quot;&gt;+ setIdRichiedente(String)&lt;/p&gt;&lt;div&gt;&lt;p style=&quot;margin: 0px 0px 0px 4px&quot;&gt;+ getDataRimborso():LocalDate&lt;/p&gt;&lt;/div&gt;&lt;div&gt;&lt;p style=&quot;margin: 0px 0px 0px 4px&quot;&gt;+ setDataRimborso(LocalDate)&lt;/p&gt;&lt;div&gt;&lt;p style=&quot;margin: 0px 0px 0px 4px&quot;&gt;+ getTotale():double&lt;/p&gt;&lt;/div&gt;&lt;div&gt;&lt;p style=&quot;margin: 0px 0px 0px 4px&quot;&gt;+ setTotale(double)&lt;/p&gt;&lt;p style=&quot;margin: 0px 0px 0px 4px&quot;&gt;+ getIdBiglietto():String&lt;/p&gt;&lt;p style=&quot;margin: 0px 0px 0px 4px&quot;&gt;+ setIdBiglietto(String)&lt;/p&gt;&lt;/div&gt;&lt;/div&gt;" style="text;strokeColor=none;fillColor=none;align=left;verticalAlign=top;spacingLeft=4;spacingRight=4;overflow=hidden;rotatable=0;points=[[0,0.5],[1,0.5]];portConstraint=eastwest;whiteSpace=wrap;html=1;" vertex="1" parent="QnNf_ze-4JacGsoy-oLV-30">
          <mxGeometry y="118" width="200" height="162" as="geometry" />
        </mxCell>
        <mxCell id="tLZGDZ3cUNBIbIivhSyW-9" value="StoricoPagamento" style="swimlane;fontStyle=1;align=center;verticalAlign=top;childLayout=stackLayout;horizontal=1;startSize=26;horizontalStack=0;resizeParent=1;resizeParentMax=0;resizeLast=0;collapsible=1;marginBottom=0;whiteSpace=wrap;html=1;" vertex="1" parent="1">
          <mxGeometry x="810" y="-470" width="190" height="210" as="geometry" />
        </mxCell>
        <mxCell id="tLZGDZ3cUNBIbIivhSyW-10" value="-idStorico: String&lt;br&gt;-idPagamento: String&lt;br&gt;-dataOra: datastamp&lt;br&gt;-Stato: String" style="text;strokeColor=none;fillColor=none;align=left;verticalAlign=top;spacingLeft=4;spacingRight=4;overflow=hidden;rotatable=0;points=[[0,0.5],[1,0.5]];portConstraint=eastwest;whiteSpace=wrap;html=1;" vertex="1" parent="tLZGDZ3cUNBIbIivhSyW-9">
          <mxGeometry y="26" width="190" height="74" as="geometry" />
        </mxCell>
        <mxCell id="tLZGDZ3cUNBIbIivhSyW-11" value="" style="line;strokeWidth=1;fillColor=none;align=left;verticalAlign=middle;spacingTop=-1;spacingLeft=3;spacingRight=3;rotatable=0;labelPosition=right;points=[];portConstraint=eastwest;strokeColor=inherit;" vertex="1" parent="tLZGDZ3cUNBIbIivhSyW-9">
          <mxGeometry y="100" width="190" height="8" as="geometry" />
        </mxCell>
        <mxCell id="tLZGDZ3cUNBIbIivhSyW-12" value="&lt;p style=&quot;margin: 0px 0px 0px 4px&quot;&gt;+ getIdStorico():String&lt;br&gt;+ setIdStorico(String)&lt;/p&gt;&lt;p style=&quot;margin: 0px 0px 0px 4px&quot;&gt;+ getStatoPagamento():String&lt;br&gt;+ setStatoPagamento(String)&lt;br&gt;&lt;/p&gt;&lt;div&gt;&lt;p style=&quot;margin: 0px 0px 0px 4px&quot;&gt;+ getIdPagamento():String&lt;/p&gt;&lt;/div&gt;&lt;div&gt;&lt;p style=&quot;margin: 0px 0px 0px 4px&quot;&gt;+ setIdPagamento(String)&lt;/p&gt;&lt;/div&gt;" style="text;strokeColor=none;fillColor=none;align=left;verticalAlign=top;spacingLeft=4;spacingRight=4;overflow=hidden;rotatable=0;points=[[0,0.5],[1,0.5]];portConstraint=eastwest;whiteSpace=wrap;html=1;" vertex="1" parent="tLZGDZ3cUNBIbIivhSyW-9">
          <mxGeometry y="108" width="190" height="102" as="geometry" />
        </mxCell>
        <mxCell id="3QEAX26eveOMgl6io7kI-12" value="TrattaFermata" style="swimlane;fontStyle=1;align=center;verticalAlign=top;childLayout=stackLayout;horizontal=1;startSize=26;horizontalStack=0;resizeParent=1;resizeParentMax=0;resizeLast=0;collapsible=1;marginBottom=0;whiteSpace=wrap;html=1;" vertex="1" parent="1">
          <mxGeometry x="480" y="1024" width="190" height="320" as="geometry" />
        </mxCell>
        <mxCell id="3QEAX26eveOMgl6io7kI-13" value="-idTratta: String&lt;br&gt;-numOrdine: int&lt;br&gt;-idFermata: String&lt;br&gt;-binario: int&lt;br&gt;-oraPartenza: time&lt;br&gt;-oraArrivo: time" style="text;strokeColor=none;fillColor=none;align=left;verticalAlign=top;spacingLeft=4;spacingRight=4;overflow=hidden;rotatable=0;points=[[0,0.5],[1,0.5]];portConstraint=eastwest;whiteSpace=wrap;html=1;" vertex="1" parent="3QEAX26eveOMgl6io7kI-12">
          <mxGeometry y="26" width="190" height="94" as="geometry" />
        </mxCell>
        <mxCell id="3QEAX26eveOMgl6io7kI-14" value="" style="line;strokeWidth=1;fillColor=none;align=left;verticalAlign=middle;spacingTop=-1;spacingLeft=3;spacingRight=3;rotatable=0;labelPosition=right;points=[];portConstraint=eastwest;strokeColor=inherit;" vertex="1" parent="3QEAX26eveOMgl6io7kI-12">
          <mxGeometry y="120" width="190" height="8" as="geometry" />
        </mxCell>
        <mxCell id="3QEAX26eveOMgl6io7kI-15" value="&lt;p style=&quot;margin: 0px 0px 0px 4px&quot;&gt;+ getIdFermata():String&lt;/p&gt;&lt;p style=&quot;margin: 0px 0px 0px 4px&quot;&gt;+ setIdFermata(String)&lt;/p&gt;&lt;p style=&quot;margin: 0px 0px 0px 4px&quot;&gt;+ getiDTratta():String&lt;/p&gt;&lt;p style=&quot;margin: 0px 0px 0px 4px&quot;&gt;+ setIDTratta(String)&lt;/p&gt;&lt;div&gt;&lt;p style=&quot;margin: 0px 0px 0px 4px&quot;&gt;+ getNumOrdine():int&lt;/p&gt;&lt;/div&gt;&lt;div&gt;&lt;p style=&quot;margin: 0px 0px 0px 4px&quot;&gt;+ setNumOrdine(int)&lt;/p&gt;&lt;div&gt;&lt;p style=&quot;margin: 0px 0px 0px 4px&quot;&gt;+ getOraArrivo():LocalTime&lt;/p&gt;&lt;/div&gt;&lt;div&gt;&lt;p style=&quot;margin: 0px 0px 0px 4px&quot;&gt;+ setOraArrivo(LocalTime)&lt;/p&gt;&lt;p style=&quot;margin: 0px 0px 0px 4px&quot;&gt;+ setOraPartenza(LocalTime)&lt;/p&gt;&lt;div&gt;&lt;p style=&quot;margin: 0px 0px 0px 4px&quot;&gt;+ getOraPartenza():LocalTime&lt;/p&gt;&lt;p style=&quot;margin: 0px 0px 0px 4px&quot;&gt;+ getBinario():int&lt;/p&gt;&lt;p style=&quot;margin: 0px 0px 0px 4px&quot;&gt;+ setBinario(int)&lt;/p&gt;&lt;/div&gt;&lt;/div&gt;&lt;/div&gt;" style="text;strokeColor=none;fillColor=none;align=left;verticalAlign=top;spacingLeft=4;spacingRight=4;overflow=hidden;rotatable=0;points=[[0,0.5],[1,0.5]];portConstraint=eastwest;whiteSpace=wrap;html=1;" vertex="1" parent="3QEAX26eveOMgl6io7kI-12">
          <mxGeometry y="128" width="190" height="192" as="geometry" />
        </mxCell>
        <mxCell id="3QEAX26eveOMgl6io7kI-16" value="TrenoTratta" style="swimlane;fontStyle=1;align=center;verticalAlign=top;childLayout=stackLayout;horizontal=1;startSize=26;horizontalStack=0;resizeParent=1;resizeParentMax=0;resizeLast=0;collapsible=1;marginBottom=0;whiteSpace=wrap;html=1;" vertex="1" parent="1">
          <mxGeometry x="-120" y="1040" width="160" height="200" as="geometry" />
        </mxCell>
        <mxCell id="3QEAX26eveOMgl6io7kI-17" value="-idTratta: String&lt;br&gt;-idTreno: String&lt;br&gt;-numTreno: int" style="text;strokeColor=none;fillColor=none;align=left;verticalAlign=top;spacingLeft=4;spacingRight=4;overflow=hidden;rotatable=0;points=[[0,0.5],[1,0.5]];portConstraint=eastwest;whiteSpace=wrap;html=1;" vertex="1" parent="3QEAX26eveOMgl6io7kI-16">
          <mxGeometry y="26" width="160" height="64" as="geometry" />
        </mxCell>
        <mxCell id="3QEAX26eveOMgl6io7kI-18" value="" style="line;strokeWidth=1;fillColor=none;align=left;verticalAlign=middle;spacingTop=-1;spacingLeft=3;spacingRight=3;rotatable=0;labelPosition=right;points=[];portConstraint=eastwest;strokeColor=inherit;" vertex="1" parent="3QEAX26eveOMgl6io7kI-16">
          <mxGeometry y="90" width="160" height="8" as="geometry" />
        </mxCell>
        <mxCell id="3QEAX26eveOMgl6io7kI-19" value="&lt;p style=&quot;margin: 0px 0px 0px 4px&quot;&gt;+ getIdTratta():String&lt;br&gt;+ setIdTratta(String)&lt;/p&gt;&lt;p style=&quot;margin: 0px 0px 0px 4px&quot;&gt;+ getIdTreno():String&lt;br&gt;+ setIdTreno(String)&lt;br&gt;&lt;/p&gt;&lt;div&gt;&lt;p style=&quot;margin: 0px 0px 0px 4px&quot;&gt;+ getNumeroTreno():int&lt;/p&gt;&lt;/div&gt;&lt;div&gt;&lt;p style=&quot;margin: 0px 0px 0px 4px&quot;&gt;+ setNumeroTreno(int)&lt;/p&gt;&lt;/div&gt;" style="text;strokeColor=none;fillColor=none;align=left;verticalAlign=top;spacingLeft=4;spacingRight=4;overflow=hidden;rotatable=0;points=[[0,0.5],[1,0.5]];portConstraint=eastwest;whiteSpace=wrap;html=1;" vertex="1" parent="3QEAX26eveOMgl6io7kI-16">
          <mxGeometry y="98" width="160" height="102" as="geometry" />
        </mxCell>
        <mxCell id="SK2A313SMxENc5DiOqP--1" value="Extends" style="endArrow=block;endSize=16;endFill=0;html=1;rounded=0;entryX=0.25;entryY=1;entryDx=0;entryDy=0;exitX=0.5;exitY=0;exitDx=0;exitDy=0;" edge="1" parent="1" source="o32jfac_dHfsaz-FWdoC-1" target="OdSbroLDjK8SDo7c2gSr-1">
          <mxGeometry width="160" relative="1" as="geometry">
            <mxPoint x="-130" y="130" as="sourcePoint" />
            <mxPoint x="30" y="130" as="targetPoint" />
          </mxGeometry>
        </mxCell>
        <mxCell id="SK2A313SMxENc5DiOqP--2" value="Extends" style="endArrow=block;endSize=16;endFill=0;html=1;rounded=0;entryX=0.75;entryY=1;entryDx=0;entryDy=0;exitX=0.5;exitY=0;exitDx=0;exitDy=0;" edge="1" parent="1" source="o32jfac_dHfsaz-FWdoC-2" target="OdSbroLDjK8SDo7c2gSr-1">
          <mxGeometry width="160" relative="1" as="geometry">
            <mxPoint x="90" y="250" as="sourcePoint" />
            <mxPoint x="250" y="250" as="targetPoint" />
          </mxGeometry>
        </mxCell>
        <mxCell id="8c_aDwqfkIJy1Gio380j-1" value="Extends" style="endArrow=block;endSize=16;endFill=0;html=1;rounded=0;entryX=0.25;entryY=1;entryDx=0;entryDy=0;exitX=0.5;exitY=0;exitDx=0;exitDy=0;" edge="1" parent="1" source="kzNBbhYGzJcGT8_5YspX-6" target="OdSbroLDjK8SDo7c2gSr-4">
          <mxGeometry width="160" relative="1" as="geometry">
            <mxPoint x="1030" y="160" as="sourcePoint" />
            <mxPoint x="1205" y="80" as="targetPoint" />
          </mxGeometry>
        </mxCell>
        <mxCell id="8c_aDwqfkIJy1Gio380j-2" value="Extends" style="endArrow=block;endSize=16;endFill=0;html=1;rounded=0;exitX=0.5;exitY=0;exitDx=0;exitDy=0;entryX=0.75;entryY=1;entryDx=0;entryDy=0;" edge="1" parent="1" source="kzNBbhYGzJcGT8_5YspX-5" target="OdSbroLDjK8SDo7c2gSr-4">
          <mxGeometry width="160" relative="1" as="geometry">
            <mxPoint x="1180" y="150" as="sourcePoint" />
            <mxPoint x="1100" y="70" as="targetPoint" />
          </mxGeometry>
        </mxCell>
        <mxCell id="8c_aDwqfkIJy1Gio380j-4" value="" style="endArrow=none;html=1;edgeStyle=orthogonalEdgeStyle;rounded=0;entryX=0.5;entryY=0;entryDx=0;entryDy=0;exitX=0.5;exitY=1;exitDx=0;exitDy=0;" edge="1" parent="1" source="kzNBbhYGzJcGT8_5YspX-5" target="QnNf_ze-4JacGsoy-oLV-1">
          <mxGeometry relative="1" as="geometry">
            <mxPoint x="820" y="550" as="sourcePoint" />
            <mxPoint x="980" y="550" as="targetPoint" />
          </mxGeometry>
        </mxCell>
        <mxCell id="8c_aDwqfkIJy1Gio380j-7" value="valida" style="text;html=1;align=center;verticalAlign=middle;resizable=0;points=[];autosize=1;strokeColor=none;fillColor=none;" vertex="1" parent="1">
          <mxGeometry x="1280" y="480" width="50" height="20" as="geometry" />
        </mxCell>
        <mxCell id="8c_aDwqfkIJy1Gio380j-11" value="" style="endArrow=none;html=1;edgeStyle=orthogonalEdgeStyle;rounded=0;entryX=0.75;entryY=0;entryDx=0;entryDy=0;exitX=0.004;exitY=0.076;exitDx=0;exitDy=0;exitPerimeter=0;" edge="1" parent="1" source="QnNf_ze-4JacGsoy-oLV-5" target="o32jfac_dHfsaz-FWdoC-2">
          <mxGeometry relative="1" as="geometry">
            <mxPoint x="530" y="-200" as="sourcePoint" />
            <mxPoint x="580" y="430" as="targetPoint" />
            <Array as="points">
              <mxPoint x="621" y="-150" />
              <mxPoint x="390" y="-150" />
            </Array>
          </mxGeometry>
        </mxCell>
        <mxCell id="8c_aDwqfkIJy1Gio380j-12" value="effettua" style="text;html=1;align=center;verticalAlign=middle;resizable=0;points=[];autosize=1;strokeColor=none;fillColor=none;" vertex="1" parent="1">
          <mxGeometry x="400" y="-96" width="60" height="20" as="geometry" />
        </mxCell>
        <mxCell id="8c_aDwqfkIJy1Gio380j-14" value="" style="endArrow=none;html=1;edgeStyle=orthogonalEdgeStyle;rounded=0;exitX=1;exitY=0.25;exitDx=0;exitDy=0;entryX=0.003;entryY=0.1;entryDx=0;entryDy=0;entryPerimeter=0;" edge="1" parent="1" source="o32jfac_dHfsaz-FWdoC-2" target="o32jfac_dHfsaz-FWdoC-3">
          <mxGeometry relative="1" as="geometry">
            <mxPoint x="700" y="440" as="sourcePoint" />
            <mxPoint x="860" y="440" as="targetPoint" />
          </mxGeometry>
        </mxCell>
        <mxCell id="8c_aDwqfkIJy1Gio380j-17" value="0,*" style="endArrow=open;html=1;endSize=12;startArrow=diamondThin;startSize=14;startFill=0;edgeStyle=orthogonalEdgeStyle;align=left;verticalAlign=bottom;rounded=0;entryX=0.5;entryY=0;entryDx=0;entryDy=0;exitX=-0.012;exitY=0.105;exitDx=0;exitDy=0;exitPerimeter=0;" edge="1" parent="1" source="tLZGDZ3cUNBIbIivhSyW-9" target="QnNf_ze-4JacGsoy-oLV-5">
          <mxGeometry x="-0.7584" y="30" relative="1" as="geometry">
            <mxPoint x="730" y="-340" as="sourcePoint" />
            <mxPoint x="740" y="-140" as="targetPoint" />
            <Array as="points">
              <mxPoint x="700" y="-456" />
            </Array>
            <mxPoint as="offset" />
          </mxGeometry>
        </mxCell>
        <mxCell id="8c_aDwqfkIJy1Gio380j-18" value="possiede" style="text;html=1;align=center;verticalAlign=middle;resizable=0;points=[];autosize=1;strokeColor=none;fillColor=none;" vertex="1" parent="1">
          <mxGeometry x="510" y="210" width="60" height="20" as="geometry" />
        </mxCell>
        <mxCell id="8c_aDwqfkIJy1Gio380j-20" value="" style="endArrow=none;html=1;edgeStyle=orthogonalEdgeStyle;rounded=0;entryX=0.999;entryY=0.175;entryDx=0;entryDy=0;exitX=0.007;exitY=0.147;exitDx=0;exitDy=0;exitPerimeter=0;entryPerimeter=0;" edge="1" parent="1" source="kzNBbhYGzJcGT8_5YspX-6" target="o32jfac_dHfsaz-FWdoC-3">
          <mxGeometry relative="1" as="geometry">
            <mxPoint x="810" y="280" as="sourcePoint" />
            <mxPoint x="810" y="560" as="targetPoint" />
          </mxGeometry>
        </mxCell>
        <mxCell id="8c_aDwqfkIJy1Gio380j-21" value="contiene" style="text;html=1;align=center;verticalAlign=middle;resizable=0;points=[];autosize=1;strokeColor=none;fillColor=none;" vertex="1" parent="1">
          <mxGeometry x="780" y="220" width="60" height="20" as="geometry" />
        </mxCell>
        <mxCell id="8c_aDwqfkIJy1Gio380j-24" value="1" style="endArrow=open;html=1;endSize=12;startArrow=diamondThin;startSize=14;startFill=1;edgeStyle=orthogonalEdgeStyle;align=left;verticalAlign=bottom;rounded=0;exitX=0.004;exitY=0.124;exitDx=0;exitDy=0;entryX=1;entryY=0.5;entryDx=0;entryDy=0;exitPerimeter=0;" edge="1" parent="1" source="QnNf_ze-4JacGsoy-oLV-14" target="3QEAX26eveOMgl6io7kI-17">
          <mxGeometry x="-0.704" y="16" relative="1" as="geometry">
            <mxPoint x="520" y="910" as="sourcePoint" />
            <mxPoint x="360" y="910" as="targetPoint" />
            <mxPoint x="1" as="offset" />
          </mxGeometry>
        </mxCell>
        <mxCell id="8c_aDwqfkIJy1Gio380j-25" value="1" style="endArrow=open;html=1;endSize=12;startArrow=diamondThin;startSize=14;startFill=1;edgeStyle=orthogonalEdgeStyle;align=left;verticalAlign=bottom;rounded=0;exitX=1;exitY=0.5;exitDx=0;exitDy=0;entryX=0.5;entryY=0;entryDx=0;entryDy=0;" edge="1" parent="1" source="QnNf_ze-4JacGsoy-oLV-15" target="3QEAX26eveOMgl6io7kI-12">
          <mxGeometry x="-1" y="3" relative="1" as="geometry">
            <mxPoint x="380" y="1260" as="sourcePoint" />
            <mxPoint x="540" y="1260" as="targetPoint" />
          </mxGeometry>
        </mxCell>
        <mxCell id="8c_aDwqfkIJy1Gio380j-26" value="1" style="endArrow=open;html=1;endSize=12;startArrow=diamondThin;startSize=14;startFill=1;edgeStyle=orthogonalEdgeStyle;align=left;verticalAlign=bottom;rounded=0;exitX=0.5;exitY=0;exitDx=0;exitDy=0;entryX=0.451;entryY=0.984;entryDx=0;entryDy=0;entryPerimeter=0;" edge="1" parent="1" source="QnNf_ze-4JacGsoy-oLV-18" target="3QEAX26eveOMgl6io7kI-15">
          <mxGeometry x="-0.9048" y="30" relative="1" as="geometry">
            <mxPoint x="380" y="1140" as="sourcePoint" />
            <mxPoint x="540" y="1140" as="targetPoint" />
            <mxPoint y="1" as="offset" />
            <Array as="points">
              <mxPoint x="590" y="1437" />
              <mxPoint x="566" y="1437" />
            </Array>
          </mxGeometry>
        </mxCell>
        <mxCell id="8c_aDwqfkIJy1Gio380j-27" value="" style="endArrow=none;html=1;edgeStyle=orthogonalEdgeStyle;rounded=0;exitX=0.5;exitY=1;exitDx=0;exitDy=0;entryX=0;entryY=0.5;entryDx=0;entryDy=0;" edge="1" parent="1" source="o32jfac_dHfsaz-FWdoC-2" target="QnNf_ze-4JacGsoy-oLV-31">
          <mxGeometry relative="1" as="geometry">
            <mxPoint x="600" y="440" as="sourcePoint" />
            <mxPoint x="760" y="440" as="targetPoint" />
          </mxGeometry>
        </mxCell>
        <mxCell id="8c_aDwqfkIJy1Gio380j-30" value="richiede" style="text;html=1;align=center;verticalAlign=middle;resizable=0;points=[];autosize=1;strokeColor=none;fillColor=none;" vertex="1" parent="1">
          <mxGeometry x="390" y="560" width="60" height="20" as="geometry" />
        </mxCell>
        <mxCell id="8c_aDwqfkIJy1Gio380j-31" value="" style="endArrow=none;html=1;edgeStyle=orthogonalEdgeStyle;rounded=0;exitX=0.25;exitY=1;exitDx=0;exitDy=0;entryX=1;entryY=0.5;entryDx=0;entryDy=0;" edge="1" parent="1" source="kzNBbhYGzJcGT8_5YspX-5" target="QnNf_ze-4JacGsoy-oLV-31">
          <mxGeometry relative="1" as="geometry">
            <mxPoint x="827" y="430" as="sourcePoint" />
            <mxPoint x="1197" y="597.9999999999995" as="targetPoint" />
          </mxGeometry>
        </mxCell>
        <mxCell id="8c_aDwqfkIJy1Gio380j-32" value="agisce" style="text;html=1;align=center;verticalAlign=middle;resizable=0;points=[];autosize=1;strokeColor=none;fillColor=none;" vertex="1" parent="1">
          <mxGeometry x="1030" y="565" width="50" height="20" as="geometry" />
        </mxCell>
        <mxCell id="8c_aDwqfkIJy1Gio380j-34" value="" style="endArrow=none;html=1;edgeStyle=orthogonalEdgeStyle;rounded=0;exitX=1.006;exitY=0.078;exitDx=0;exitDy=0;exitPerimeter=0;entryX=0.009;entryY=0.174;entryDx=0;entryDy=0;entryPerimeter=0;" edge="1" parent="1" source="QnNf_ze-4JacGsoy-oLV-5" target="OdSbroLDjK8SDo7c2gSr-4">
          <mxGeometry relative="1" as="geometry">
            <mxPoint x="720" y="150" as="sourcePoint" />
            <mxPoint x="880" y="150" as="targetPoint" />
          </mxGeometry>
        </mxCell>
        <mxCell id="8c_aDwqfkIJy1Gio380j-37" value="eseguito" style="text;html=1;align=center;verticalAlign=middle;resizable=0;points=[];autosize=1;strokeColor=none;fillColor=none;" vertex="1" parent="1">
          <mxGeometry x="830" y="-90" width="60" height="20" as="geometry" />
        </mxCell>
        <mxCell id="-TGDf6H2j6TQzn_Tp3ma-1" value="" style="endArrow=none;html=1;edgeStyle=orthogonalEdgeStyle;rounded=0;entryX=0;entryY=0.5;entryDx=0;entryDy=0;exitX=1.016;exitY=0.13;exitDx=0;exitDy=0;exitPerimeter=0;" edge="1" parent="1" source="QnNf_ze-4JacGsoy-oLV-14" target="QnNf_ze-4JacGsoy-oLV-2">
          <mxGeometry relative="1" as="geometry">
            <mxPoint x="780" y="770" as="sourcePoint" />
            <mxPoint x="940" y="770" as="targetPoint" />
          </mxGeometry>
        </mxCell>
        <mxCell id="-TGDf6H2j6TQzn_Tp3ma-4" value="contiene" style="text;html=1;align=center;verticalAlign=middle;resizable=0;points=[];autosize=1;strokeColor=none;fillColor=none;" vertex="1" parent="1">
          <mxGeometry x="780" y="830" width="60" height="20" as="geometry" />
        </mxCell>
        <mxCell id="-TGDf6H2j6TQzn_Tp3ma-5" value="" style="endArrow=none;html=1;edgeStyle=orthogonalEdgeStyle;rounded=0;exitX=0.5;exitY=1;exitDx=0;exitDy=0;entryX=0.5;entryY=0;entryDx=0;entryDy=0;" edge="1" parent="1" source="o32jfac_dHfsaz-FWdoC-1" target="QnNf_ze-4JacGsoy-oLV-10">
          <mxGeometry relative="1" as="geometry">
            <mxPoint x="390" y="580" as="sourcePoint" />
            <mxPoint y="490" as="targetPoint" />
          </mxGeometry>
        </mxCell>
        <mxCell id="-TGDf6H2j6TQzn_Tp3ma-8" value="lavora" style="text;html=1;align=center;verticalAlign=middle;resizable=0;points=[];autosize=1;strokeColor=none;fillColor=none;" vertex="1" parent="1">
          <mxGeometry y="500" width="50" height="20" as="geometry" />
        </mxCell>
        <mxCell id="-TGDf6H2j6TQzn_Tp3ma-9" value="1" style="endArrow=open;html=1;endSize=12;startArrow=diamondThin;startSize=14;startFill=1;edgeStyle=orthogonalEdgeStyle;align=left;verticalAlign=bottom;rounded=0;entryX=0.5;entryY=0;entryDx=0;entryDy=0;exitX=0.45;exitY=1.007;exitDx=0;exitDy=0;exitPerimeter=0;" edge="1" parent="1" source="QnNf_ze-4JacGsoy-oLV-13" target="3QEAX26eveOMgl6io7kI-16">
          <mxGeometry x="-0.8048" y="8" relative="1" as="geometry">
            <mxPoint x="-40" y="960" as="sourcePoint" />
            <mxPoint x="120" y="960" as="targetPoint" />
            <mxPoint as="offset" />
          </mxGeometry>
        </mxCell>
      </root>
    </mxGraphModel>
  </diagram>
  <diagram id="pvsZX48Ygg4FhXRNinc9" name="Client">
    <mxGraphModel dx="1264" dy="592" grid="1" gridSize="10" guides="1" tooltips="1" connect="1" arrows="1" fold="1" page="1" pageScale="1" pageWidth="827" pageHeight="1169" math="0" shadow="0">
      <root>
        <mxCell id="0" />
        <mxCell id="1" parent="0" />
      </root>
    </mxGraphModel>
  </diagram>
</mxfile>
